<svg version="1.1" viewBox="-24 26 100 125" xmlns="http://www.w3.org/2000/svg" xmlns:xlink="http://www.w3.org/1999/xlink" overflow="hidden"><g><path d=" M 74.3 77.8 C 74.3 77.5 74.2 77.2 73.9 77 L 11.9 31.7 C 11.6 31.4 11.1 31.4 10.8 31.6 L -21.8 50.9 C -22.1 51 -22.3 51.4 -22.3 51.7 L -22.3 51.8 L -22.3 51.8 L -22.3 74.2 C -22.3 74.5 -22.2 74.8 -21.9 75 L 40.1 120.3 C 40.3 120.4 40.5 120.5 40.7 120.5 C 40.9 120.5 41 120.4 41.2 120.4 L 73.8 101.2 C 74.1 101 74.3 100.7 74.3 100.4 L 74.3 77.8 L 74.3 77.8 Z M 53 77.6 C 54.3 78.6 56.2 79.1 58.2 79.1 C 60.3 79.1 62.1 78.5 63.4 77.6 L 63.4 78 C 63.4 79.7 61 81.2 58.2 81.2 C 55.4 81.2 53 79.7 53 78 L 53 77.6 Z M 58.3 77.2 C 55.5 77.2 53.1 75.7 53.1 74 C 53.1 72.3 55.5 70.8 58.3 70.8 C 61.1 70.8 63.5 72.2 63.5 74 C 63.5 75.7 61.1 77.2 58.3 77.2 Z M 37.6 66.3 C 38.9 67.3 40.8 67.8 42.8 67.8 C 44.9 67.8 46.7 67.2 48 66.3 L 48 66.7 C 48 68.4 45.6 69.9 42.8 69.9 C 40 69.9 37.6 68.5 37.6 66.7 L 37.6 66.3 Z M 42.8 65.9 C 40 65.9 37.6 64.5 37.6 62.7 C 37.6 61 40 59.5 42.8 59.5 C 45.6 59.5 48 61 48 62.7 C 48 64.4 45.6 65.9 42.8 65.9 Z M 22.1 55 C 23.4 56 25.3 56.5 27.3 56.5 C 29.3 56.5 31.2 55.9 32.5 55 L 32.5 55.4 C 32.5 57.1 30.1 58.6 27.3 58.6 C 24.5 58.6 22.1 57.2 22.1 55.4 C 22.1 55.4 22.1 55 22.1 55 Z M 27.4 54.5 C 24.6 54.5 22.2 53 22.2 51.3 C 22.2 49.6 24.6 48.1 27.4 48.1 C 30.2 48.1 32.6 49.5 32.6 51.3 C 32.6 53.1 30.2 54.5 27.4 54.5 Z M 6.6 43.7 C 7.9 44.7 9.8 45.2 11.8 45.2 C 13.9 45.2 15.7 44.6 17 43.7 L 17 44.1 C 17 45.8 14.6 47.3 11.8 47.3 C 9 47.3 6.6 45.9 6.6 44.1 C 6.6 44.1 6.6 43.7 6.6 43.7 Z M 11.9 43.3 C 9.1 43.3 6.7 41.9 6.7 40.1 C 6.7 38.3 9.1 36.9 11.9 36.9 C 14.7 36.9 17.1 38.4 17.1 40.1 C 17.1 41.8 14.7 43.3 11.9 43.3 Z M 11.3 33.7 L 13.1 35 C 12.7 34.9 12.3 34.9 11.9 34.9 C 7.8 34.9 4.6 37.2 4.6 40.1 L 4.6 44.1 C 4.6 47 7.8 49.3 11.9 49.3 C 16 49.3 19.2 47 19.2 44.1 L 19.2 40.1 C 19.2 39.8 19.2 39.6 19.1 39.4 L 28.5 46.4 C 28.1 46.3 27.7 46.3 27.3 46.3 C 23.2 46.3 20 48.6 20 51.5 L 20 55.5 C 20 58.4 23.2 60.7 27.3 60.7 C 31.4 60.7 34.6 58.4 34.6 55.5 L 34.6 51.5 C 34.6 51.2 34.6 51 34.5 50.8 L 44 57.7 C 43.6 57.6 43.2 57.6 42.8 57.6 C 38.7 57.6 35.5 59.9 35.5 62.8 L 35.5 66.8 C 35.5 69.7 38.7 72 42.8 72 C 46.9 72 50.1 69.7 50.1 66.8 L 50.1 62.8 C 50.1 62.5 50.1 62.3 50 62.1 L 59.5 69 C 59.1 68.9 58.7 68.9 58.3 68.9 C 54.2 68.9 51 71.2 51 74.1 L 51 78.1 C 51 81 54.2 83.3 58.3 83.3 C 62.4 83.3 65.6 81 65.6 78.1 L 65.6 74.1 C 65.6 73.8 65.6 73.6 65.5 73.4 L 71.5 77.8 L 40.9 95.7 L -19.4 51.8 L 11.3 33.7 Z M -20.3 53.6 L 39.6 97.4 L 39.6 117.3 L -20.3 73.5 L -20.3 53.6 Z M 41.7 117.6 L 41.7 97.6 L 72.3 79.6 L 72.3 99.6 L 41.7 117.6 Z"/><path d=" M -4.6 44.6 C -8.7 44.6 -11.9 46.9 -11.9 49.8 L -11.9 53.8 C -11.9 56.7 -8.7 59 -4.6 59 C -0.5 59 2.7 56.7 2.7 53.8 L 2.7 49.8 C 2.6 46.9 -0.5 44.6 -4.6 44.6 Z M -4.6 57 C -7.4 57 -9.8 55.5 -9.8 53.8 L -9.8 53.4 C -8.5 54.4 -6.6 54.9 -4.6 54.9 C -2.6 54.9 -0.7 54.3 0.6 53.4 L 0.6 53.8 C 0.6 55.5 -1.7 57 -4.6 57 Z M -4.6 53 C -7.4 53 -9.8 51.5 -9.8 49.8 C -9.8 48.1 -7.4 46.6 -4.6 46.6 C -1.8 46.6 0.6 48 0.6 49.8 C 0.6 51.5 -1.7 53 -4.6 53 Z"/><path d=" M 10.9 55.9 C 6.8 55.9 3.6 58.2 3.6 61.1 L 3.6 65.1 C 3.6 68 6.8 70.3 10.9 70.3 C 15 70.3 18.2 68 18.2 65.1 L 18.2 61.1 C 18.1 58.2 14.9 55.9 10.9 55.9 Z M 10.9 68.2 C 8.1 68.2 5.7 66.8 5.7 65 L 5.7 64.6 C 7 65.6 8.9 66.1 10.9 66.1 C 12.9 66.1 14.8 65.5 16.1 64.6 L 16.1 65 C 16.1 66.8 13.7 68.2 10.9 68.2 Z M 10.9 64.3 C 8.1 64.3 5.7 62.9 5.7 61.1 C 5.7 59.4 8.1 57.9 10.9 57.9 C 13.7 57.9 16.1 59.4 16.1 61.1 C 16.1 62.8 13.7 64.3 10.9 64.3 Z"/><path d=" M 26.3 67.3 C 22.2 67.3 19 69.6 19 72.5 L 19 76.5 C 19 79.4 22.2 81.7 26.3 81.7 C 30.4 81.7 33.6 79.4 33.6 76.5 L 33.6 72.5 C 33.5 69.5 30.4 67.3 26.3 67.3 Z M 26.3 79.6 C 23.5 79.6 21.1 78.1 21.1 76.4 L 21.1 76 C 22.4 77 24.3 77.5 26.3 77.5 C 28.3 77.5 30.2 76.9 31.5 76 L 31.5 76.4 C 31.5 78.1 29.2 79.6 26.3 79.6 Z M 26.3 75.6 C 23.5 75.6 21.1 74.1 21.1 72.4 C 21.1 70.7 23.5 69.2 26.3 69.2 C 29.1 69.2 31.5 70.6 31.5 72.4 C 31.5 74.2 29.2 75.6 26.3 75.6 Z"/><path d=" M 49 87.8 L 49 83.8 C 49 80.9 45.8 78.6 41.7 78.6 C 37.6 78.6 34.4 80.9 34.4 83.8 L 34.4 87.8 C 34.4 90.7 37.6 93 41.7 93 C 45.8 93 49 90.6 49 87.8 Z M 41.8 80.6 C 44.6 80.6 47 82.1 47 83.8 C 47 85.5 44.6 87 41.8 87 C 39 87 36.6 85.6 36.6 83.8 C 36.6 82 38.9 80.6 41.8 80.6 Z M 36.6 87.8 L 36.6 87.4 C 37.9 88.4 39.8 88.9 41.8 88.9 C 43.8 88.9 45.7 88.3 47 87.4 L 47 87.8 C 47 89.5 44.6 91 41.8 91 C 39 91 36.6 89.4 36.6 87.8 Z"/></g><text fill="#000000" font-family="Helvetica Neue,Helvetica,Arial-Unicode,Arial,Arial" font-weight="700" font-size="5" x="-24" y="141">Created by Gerardo Martín Martínez</text><text fill="#000000" font-family="Helvetica Neue,Helvetica,Arial-Unicode,Arial,Arial" font-weight="700" font-size="5" x="-24" y="146">from the Noun Project</text></svg>